<svg version="1.1" id="Layer_1" xmlns="http://www.w3.org/2000/svg" xmlns:xlink="http://www.w3.org/1999/xlink" x="0px" y="0px"
	 width="100%" viewBox="0 0 1115 1440" enable-background="new 0 0 1115 1440" xml:space="preserve">
<path fill="#FFFFFF" opacity="1.000000" stroke="none" 
	d="
M400.000000,1441.000000 
	C268.166656,1441.000000 136.833313,1440.981445 5.500081,1441.094238 
	C1.750537,1441.097534 0.906360,1440.249023 0.907131,1436.500000 
	C1.005141,959.500000 1.005141,482.500000 0.907131,5.500019 
	C0.906360,1.750962 1.750919,0.905960 5.500025,0.906973 
	C374.166656,1.006660 742.833313,1.006660 1111.500000,0.906973 
	C1115.249023,0.905960 1116.093750,1.750961 1116.093018,5.500019 
	C1115.994995,482.500000 1115.994873,959.500000 1116.092896,1436.500000 
	C1116.093628,1440.249023 1115.249146,1441.095093 1111.500000,1441.093506 
	C874.500000,1440.989746 637.500000,1441.000000 400.000000,1441.000000 
z"/>
<path fill="#68B894" opacity="1.000000" stroke="none" 
	d="
M534.992310,499.810486 
	C538.433533,487.090790 543.944519,475.955841 553.295776,466.823059 
	C571.775146,448.775299 601.663879,444.300751 624.520386,456.353424 
	C644.999695,467.152588 655.812195,484.454712 658.964966,507.434540 
	C659.598389,510.911713 659.152710,514.050903 659.662598,517.523865 
	C656.680664,547.758911 634.916931,571.028870 605.120422,574.909241 
	C568.804932,579.638672 538.907959,555.083191 533.501343,521.307983 
	C532.893555,517.510986 532.485657,513.735291 532.849731,509.506378 
	C533.896179,506.207916 533.142822,502.873535 534.992310,499.810486 
z"/>
<path fill="#68B894" opacity="1.000000" stroke="none" 
	d="
M756.702332,691.703735 
	C762.279602,695.351624 768.308105,697.284546 773.419495,701.135010 
	C801.775879,722.496704 807.563110,761.324158 786.369263,789.371033 
	C765.375366,817.153320 725.997498,821.943115 697.891785,800.149536 
	C697.264038,799.662720 696.482422,799.374390 695.421082,798.954224 
	C692.636902,797.340637 690.982971,794.862671 688.275757,793.023071 
	C678.424316,780.954224 673.114807,767.294128 672.938171,752.271118 
	C672.638794,726.799988 687.212463,703.378601 711.976562,692.868164 
	C723.521545,687.968140 735.597168,685.930054 748.502808,688.958374 
	C751.336121,690.049316 753.999390,690.352844 756.702332,691.703735 
z"/>
<path fill="#68B894" opacity="1.000000" stroke="none" 
	d="
M482.369537,802.315063 
	C479.743103,802.187195 478.538971,804.064636 477.084839,805.302368 
	C455.424286,823.740784 425.170654,825.740601 402.106842,810.211853 
	C378.290741,794.176575 368.047455,765.296631 377.275421,738.370911 
	C383.857605,719.165100 397.166931,706.132446 416.642426,699.005005 
	C419.050812,696.924438 421.823792,696.959106 424.695984,696.099854 
	C442.790405,691.997986 458.868683,696.373169 473.340332,706.485168 
	C491.298401,719.033203 499.639587,737.173035 500.092346,758.630981 
	C500.363770,771.495056 496.267822,783.561584 488.502014,794.538574 
	C486.188477,797.091980 483.743134,799.059875 482.369537,802.315063 
z"/>
<path fill="#0A0A0B" opacity="1.000000" stroke="none" 
	d="
M425.795349,696.279053 
	C423.259918,698.206665 420.437958,698.242676 417.404358,698.908813 
	C399.293304,610.664429 451.590851,525.796692 534.541992,499.595337 
	C535.848999,502.487549 534.841858,505.412140 534.139648,508.721649 
	C532.500610,511.019470 530.403870,511.924805 528.218628,512.843933 
	C468.941864,537.775757 434.128967,581.761841 425.261932,645.697327 
	C423.242554,660.257996 423.741852,674.912964 425.936768,689.474548 
	C426.261475,691.628723 426.452881,693.772705 425.795349,696.279053 
z"/>
<path fill="#0A0A0B" opacity="1.000000" stroke="none" 
	d="
M482.418091,802.753784 
	C481.444855,798.914185 485.058594,797.768005 486.668152,795.113037 
	C490.352142,794.562805 492.462738,797.048523 494.837799,798.687683 
	C513.192993,811.356628 533.393250,819.695862 555.209167,823.886719 
	C591.192993,830.799316 625.753296,825.890015 658.715149,810.049988 
	C667.257629,805.944946 675.285706,800.841492 682.897827,795.134216 
	C684.465271,793.958984 685.944336,792.485962 688.495850,792.544922 
	C691.952148,793.385437 693.491638,795.809082 695.059814,798.563232 
	C659.263062,827.136414 618.594360,839.989441 573.119568,836.778992 
	C539.742554,834.422546 509.701538,822.641235 482.418091,802.753784 
z"/>
<path fill="#0A0A0B" opacity="1.000000" stroke="none" 
	d="
M757.025574,691.600342 
	C754.079712,692.540222 751.514832,691.442322 748.663452,690.037598 
	C747.184021,686.668701 747.530579,683.460754 747.849915,680.359009 
	C751.579712,644.135559 743.601685,610.544800 724.818604,579.546204 
	C709.929321,554.973694 689.759644,535.761108 664.379700,522.129700 
	C662.481934,521.110413 660.470154,520.224060 659.180908,517.902893 
	C657.821045,514.569031 658.841919,511.495850 658.834534,508.163483 
	C703.421997,528.875305 733.709839,562.680420 749.929138,608.929382 
	C759.306885,635.670044 761.379211,663.206360 757.025574,691.600342 
z"/>
<path fill="#FFFFFF" opacity="1.000000" stroke="none" 
	d="
M658.813354,517.828308 
	C704.366211,540.616943 733.236877,576.889771 745.842224,626.016846 
	C751.152283,646.711426 751.644531,667.747070 748.507996,689.304993 
	C740.437317,689.505615 732.550415,688.799072 724.600281,690.515442 
	C679.177246,700.321960 659.601257,752.286682 687.429626,789.487488 
	C688.010498,790.263977 688.941284,790.844727 688.846802,792.341797 
	C630.741638,837.936218 553.614319,840.758301 493.519897,799.804871 
	C491.463776,798.403625 489.530212,796.822571 487.250061,795.135986 
	C492.999390,785.227783 497.123871,774.954407 498.360657,763.362549 
	C501.615570,732.855347 477.999481,701.744690 447.716644,697.066772 
	C440.576599,695.963745 433.501862,695.710205 425.999054,696.711914 
	C415.006165,637.558228 431.362091,586.996094 474.018250,545.024597 
	C490.852478,528.460571 511.029724,516.992676 533.603149,509.074554 
	C534.167664,527.891235 539.991821,544.499817 554.144653,557.336670 
	C572.492249,573.978333 593.999939,578.586609 617.210144,570.412598 
	C640.468018,562.221741 653.974365,545.015564 657.990356,520.558655 
	C658.123962,519.744995 658.340454,518.944885 658.813354,517.828308 
z"/>
<path fill="#FFFFFF" opacity="1.000000" stroke="none" 
	d="
M548.088013,522.578247 
	C542.668091,495.656799 558.920837,472.047852 581.146973,464.881683 
	C608.544922,456.048035 637.623779,472.133728 644.630005,500.104553 
	C651.490540,527.493408 633.238647,556.060730 605.267822,560.649963 
	C576.977234,565.291748 554.369324,547.943054 548.088013,522.578247 
z"/>
<path fill="#FFFFFF" opacity="1.000000" stroke="none" 
	d="
M714.608276,707.435547 
	C738.035217,696.647156 763.827393,703.268188 777.380493,723.278870 
	C791.361694,743.921631 788.887939,770.702881 770.882080,787.464478 
	C756.368408,800.975220 739.010803,804.832886 720.441101,798.127441 
	C701.158142,791.164368 689.572266,776.863037 687.781982,756.145874 
	C685.905701,734.432739 695.247009,718.226562 714.608276,707.435547 
z"/>
<path fill="#FFFFFF" opacity="1.000000" stroke="none" 
	d="
M386.924103,758.933594 
	C387.263092,730.671326 408.622955,709.018555 435.859375,708.858459 
	C462.985474,708.699036 485.308044,730.136169 485.918549,756.932190 
	C486.540955,784.250549 464.722504,807.241150 437.604492,807.841858 
	C410.190491,808.449036 387.676910,786.928772 386.924103,758.933594 
z"/>
</svg>