<svg width="220" height="220" viewBox="0 0 220 220" fill="none" xmlns="http://www.w3.org/2000/svg">
<path d="M178.046 125.692C175.268 125.692 172.604 126.796 170.64 128.761C168.676 130.726 167.573 133.391 167.573 136.171V140.152L152.072 124.644C146.599 119.211 139.202 116.163 131.492 116.163C123.783 116.163 116.385 119.211 110.912 124.644L103.581 131.979L77.6071 105.992C72.0575 100.707 64.689 97.7587 57.0271 97.7587C49.3652 97.7587 41.9967 100.707 36.4471 105.992L20.9466 121.5V62.8198C20.9466 60.0407 22.05 57.3754 24.0142 55.4103C25.9783 53.4451 28.6422 52.3411 31.4199 52.3411H104.733C107.511 52.3411 110.175 51.2371 112.139 49.272C114.103 47.3069 115.206 44.6416 115.206 41.8625C115.206 39.0833 114.103 36.4181 112.139 34.4529C110.175 32.4878 107.511 31.3838 104.733 31.3838H31.4199C23.0868 31.3838 15.095 34.6958 9.20268 40.5912C3.3103 46.4866 0 54.4825 0 62.8198V188.564C0 196.901 3.3103 204.897 9.20268 210.793C15.095 216.688 23.0868 220 31.4199 220H157.099C165.433 220 173.424 216.688 179.317 210.793C185.209 204.897 188.519 196.901 188.519 188.564V136.171C188.519 133.391 187.416 130.726 185.452 128.761C183.488 126.796 180.824 125.692 178.046 125.692ZM31.4199 199.043C28.6422 199.043 25.9783 197.939 24.0142 195.974C22.05 194.008 20.9466 191.343 20.9466 188.564V151.155L51.3192 120.767C52.8578 119.3 54.9017 118.482 57.0271 118.482C59.1525 118.482 61.1964 119.3 62.7351 120.767L95.9354 153.984L140.971 199.043H31.4199ZM167.573 188.564C167.558 190.57 166.897 192.517 165.688 194.118L118.453 146.649L125.784 139.314C126.535 138.547 127.431 137.938 128.421 137.522C129.41 137.107 130.472 136.892 131.545 136.892C132.618 136.892 133.68 137.107 134.669 137.522C135.658 137.938 136.554 138.547 137.305 139.314L167.573 169.807V188.564ZM216.902 34.4226L185.482 2.98656C184.486 2.03258 183.312 1.28477 182.026 0.786042C179.476 -0.262014 176.616 -0.262014 174.066 0.786042C172.781 1.28477 171.606 2.03258 170.61 2.98656L139.19 34.4226C137.218 36.3958 136.11 39.072 136.11 41.8625C136.11 44.653 137.218 47.3291 139.19 49.3023C141.162 51.2755 143.837 52.384 146.626 52.384C149.415 52.384 152.09 51.2755 154.062 49.3023L167.573 35.68V94.2559C167.573 97.035 168.676 99.7003 170.64 101.665C172.604 103.631 175.268 104.735 178.046 104.735C180.824 104.735 183.488 103.631 185.452 101.665C187.416 99.7003 188.519 97.035 188.519 94.2559V35.68L202.03 49.3023C203.004 50.2845 204.162 51.064 205.438 51.596C206.714 52.128 208.083 52.4019 209.466 52.4019C210.849 52.4019 212.217 52.128 213.494 51.596C214.77 51.064 215.928 50.2845 216.902 49.3023C217.884 48.3282 218.663 47.1692 219.195 45.8923C219.726 44.6154 220 43.2458 220 41.8625C220 40.4792 219.726 39.1095 219.195 37.8326C218.663 36.5557 217.884 35.3967 216.902 34.4226Z" fill="black" fill-opacity="0.3"/>
</svg>
