<svg version="1.1" id="Layer_1" xmlns="http://www.w3.org/2000/svg" xmlns:xlink="http://www.w3.org/1999/xlink" x="0px" y="0px"
	 width="100%" viewBox="0 0 1115 1440" enable-background="new 0 0 1115 1440" xml:space="preserve">
<path fill="#FFFFFF" opacity="1.000000" stroke="none" 
	d="
M709.000000,1441.000000 
	C474.166656,1441.000000 239.833328,1440.989624 5.500041,1441.093506 
	C1.750807,1441.095215 0.906360,1440.249023 0.907131,1436.500000 
	C1.005141,959.500000 1.005141,482.500000 0.907131,5.500019 
	C0.906360,1.750962 1.750919,0.905960 5.500025,0.906973 
	C374.166656,1.006660 742.833313,1.006660 1111.500000,0.906973 
	C1115.249023,0.905960 1116.093750,1.750961 1116.093018,5.500019 
	C1115.994995,482.500000 1115.994873,959.500000 1116.092896,1436.500000 
	C1116.093628,1440.249023 1115.249390,1441.097412 1111.499878,1441.094238 
	C977.500000,1440.981812 843.500000,1441.000000 709.000000,1441.000000 
z"/>
<path fill="#62B990" opacity="1.000000" stroke="none" 
	d="
M698.865723,532.206177 
	C709.325256,532.333862 719.351257,530.553101 729.436768,533.588013 
	C748.689087,539.381348 759.607788,552.372253 763.662231,571.487732 
	C766.086304,582.916565 766.527100,594.516785 765.023132,606.198853 
	C764.432007,610.790771 764.837219,615.514526 764.836853,620.178284 
	C764.833252,667.998596 764.808533,715.819031 764.887939,763.639221 
	C764.896484,768.775757 765.841370,773.913025 765.813354,779.046997 
	C765.703247,799.233521 753.600525,811.919312 733.515930,814.049866 
	C723.971802,815.062317 714.571411,813.695312 705.097961,813.711853 
	C617.122009,813.865845 529.145691,813.783081 441.169525,813.867554 
	C432.384003,813.875977 423.683167,815.483582 414.791779,814.222778 
	C391.926331,810.980591 382.264069,795.875671 382.481445,774.078674 
	C382.546204,767.585449 382.791321,761.093140 382.794037,754.600281 
	C382.817169,699.781372 382.986847,644.961365 382.634796,590.144653 
	C382.569733,580.014709 383.233551,570.275635 386.656891,560.764526 
	C393.212830,542.550232 407.459839,532.226074 426.801697,531.874817 
	C434.628693,531.732666 442.461945,531.932678 450.776733,532.004395 
	C456.268372,534.705261 461.682587,534.848572 467.160278,534.581604 
	C473.661713,534.264771 480.091522,534.953552 486.457214,536.157043 
	C491.930725,537.191833 496.701050,536.557068 500.416870,531.271729 
	C502.911530,530.319641 505.087219,530.398438 507.245453,530.397766 
	C554.660278,530.382141 602.075073,530.384949 649.489868,530.393372 
	C651.319336,530.393677 653.151855,530.378235 655.397156,530.838501 
	C656.817993,531.316772 657.555725,531.980713 657.979309,532.923401 
	C660.227051,537.925354 664.694885,538.773438 669.280945,538.249084 
	C674.270752,537.678528 679.244141,537.477112 684.212830,537.696594 
	C689.840149,537.945251 694.744995,536.805420 698.865723,532.206177 
z"/>
<path fill="#9B9B9B" opacity="1.000000" stroke="none" 
	d="
M518.673950,343.337952 
	C536.364868,333.058167 554.351624,324.811249 575.052551,324.836487 
	C578.370667,324.840546 581.708374,324.636169 585.003967,324.247375 
	C595.650635,322.991302 604.614746,328.629944 614.273499,331.348572 
	C618.240173,332.465027 621.932129,334.557465 625.985596,336.466125 
	C635.095886,346.765930 644.280518,356.479950 652.102844,367.480713 
	C660.423584,379.182404 667.383728,391.639160 674.225098,404.146118 
	C679.077332,413.016541 684.955505,421.330414 689.225403,430.840271 
	C692.308594,438.944519 693.533691,447.276642 695.410461,455.448792 
	C697.211121,463.289276 698.752869,471.189697 700.348877,479.075836 
	C700.500427,479.824585 700.227844,480.659180 699.990234,481.771179 
	C697.244446,483.867065 695.116943,482.980927 693.276062,480.884399 
	C691.962036,479.387817 690.684998,477.843048 689.535522,476.222107 
	C680.829346,463.944550 669.078552,454.628723 658.326843,444.372559 
	C652.899719,439.195587 648.220215,433.381531 642.923584,428.124542 
	C639.387878,424.615204 635.987793,420.966858 631.986633,417.458496 
	C631.543274,417.126373 631.374695,416.987213 630.983398,416.616058 
	C630.277039,415.724640 629.978394,414.954285 629.314575,414.064758 
	C628.998779,413.689178 628.872803,413.537811 628.572021,413.147949 
	C628.174866,412.577850 627.947632,412.249695 627.510498,411.691711 
	C627.158875,411.305542 627.011536,411.153015 626.631592,410.768127 
	C626.239685,410.374481 626.080383,410.213165 625.684204,409.795959 
	C620.605286,401.686035 613.409668,395.870667 607.488525,388.946564 
	C602.168152,382.725006 594.625916,380.152740 586.710083,379.381805 
	C561.192932,376.896484 541.241150,387.143036 525.259583,406.981689 
	C523.354126,407.781799 522.164734,408.926331 521.021606,410.144775 
	C513.651733,418.000122 505.624084,425.170563 497.863586,432.617798 
	C489.640167,440.509308 482.036163,449.119507 474.797394,457.977386 
	C470.870636,462.782471 465.722076,466.196594 461.269592,470.396973 
	C459.946045,471.645569 458.120331,472.256836 455.881592,471.406006 
	C453.119812,467.435730 454.839172,463.533752 455.387970,459.752502 
	C456.113586,454.752625 457.274567,449.815948 458.588989,444.694427 
	C459.148926,438.213684 462.311218,432.880737 464.748779,427.309601 
	C470.468750,414.236511 475.017212,400.671295 481.596222,387.952820 
	C486.270660,378.916260 491.875549,370.532837 498.038757,362.475952 
	C503.751740,355.007690 511.128387,349.360992 518.673950,343.337952 
z"/>
<path fill="#646366" opacity="1.000000" stroke="none" 
	d="
M455.484039,471.622986 
	C463.942444,469.264771 468.767548,462.612579 474.007599,456.837555 
	C485.614380,444.045532 496.913605,431.001648 510.175659,419.813354 
	C513.826111,416.733704 516.726379,412.777985 520.117554,409.370178 
	C521.172241,408.310364 521.784058,406.387665 524.057434,406.957977 
	C525.281311,409.438263 524.143494,411.443695 523.473022,413.438568 
	C516.058777,435.496490 510.136963,457.980377 504.696991,480.579987 
	C502.486938,489.761383 501.569183,499.217499 501.377594,508.719513 
	C501.227448,516.165283 502.197083,523.650574 500.443939,531.388428 
	C498.156952,537.533447 495.419678,539.379456 488.106964,537.890259 
	C478.565826,535.947327 469.013824,535.828491 459.389709,536.045044 
	C456.260681,536.115417 453.379974,535.649414 451.515869,532.253052 
	C451.809937,523.789185 452.209930,515.533264 452.943207,507.306976 
	C453.989685,495.567657 453.696411,483.739258 455.484039,471.622986 
z"/>
<path fill="#646366" opacity="1.000000" stroke="none" 
	d="
M630.639160,416.404358 
	C632.626831,415.714874 633.527893,417.085480 634.543091,418.116974 
	C646.875916,430.646912 659.126404,443.258484 671.532532,455.715149 
	C675.504333,459.703186 679.749268,463.445557 684.092468,467.029663 
	C688.152039,470.379700 689.875977,475.393463 693.327332,479.212921 
	C695.106995,481.182404 696.548157,482.268738 699.436401,482.089661 
	C701.085632,498.466675 700.657471,514.826355 699.275391,531.651428 
	C696.932312,537.740906 692.342896,539.377136 686.799866,538.882996 
	C678.738892,538.164429 670.702454,540.844604 662.662598,538.980408 
	C659.324585,538.206543 656.852173,536.511536 656.893188,532.196838 
	C653.175293,527.030090 654.293335,521.201660 653.834656,515.919922 
	C651.021423,483.527527 643.194519,452.376526 631.740417,422.048798 
	C631.099060,420.350800 630.186646,418.707642 630.639160,416.404358 
z"/>
<path fill="#686769" opacity="1.000000" stroke="none" 
	d="
M689.455200,430.567139 
	C685.101440,427.727722 683.410156,422.503723 680.760864,418.067688 
	C673.100647,405.240967 666.339417,391.870026 658.499939,379.160126 
	C652.069519,368.734802 644.946472,358.720062 636.470276,349.717438 
	C632.707520,345.720947 628.605164,341.917847 625.986694,336.917847 
	C635.556091,341.362244 644.023315,347.592010 650.554810,355.401855 
	C668.040466,376.310120 682.329224,399.181824 688.499573,426.266296 
	C688.794189,427.559509 689.072144,428.856537 689.455200,430.567139 
z"/>
<path fill="#686769" opacity="1.000000" stroke="none" 
	d="
M518.604980,343.159485 
	C516.862427,346.761261 513.476624,349.305542 510.325195,351.786438 
	C499.221832,360.527344 491.943726,372.192780 485.017548,384.073792 
	C477.053955,397.734436 472.230957,412.846832 466.005127,427.311340 
	C463.653259,432.775421 460.776093,438.033569 459.151306,444.207794 
	C458.298889,436.825531 460.736420,429.511505 461.939697,422.050598 
	C465.907471,397.448273 477.911774,376.908661 494.971558,359.253906 
	C501.549500,352.446594 509.697754,347.412506 518.604980,343.159485 
z"/>
<path fill="#7FD5AE" opacity="1.000000" stroke="none" 
	d="
M459.000000,604.990234 
	C439.503998,604.990112 420.508026,604.996216 401.512024,604.986877 
	C393.577087,604.982971 390.523926,602.341858 390.041412,594.516602 
	C388.817291,574.663574 397.040375,559.391724 412.398987,547.132751 
	C418.689240,542.112000 425.367889,542.665649 432.357300,542.883362 
	C434.187866,542.940369 436.019592,542.995178 437.850769,542.995361 
	C530.164612,543.002197 622.478394,542.996521 714.792236,543.010315 
	C732.542725,543.012939 747.600525,554.211426 752.547668,571.180969 
	C754.870117,579.147278 755.956787,587.378662 756.923218,595.592468 
	C757.678223,602.008606 754.598938,605.000854 747.939148,605.000488 
	C651.792786,604.995361 555.646362,604.993164 459.000000,604.990234 
z"/>
<path fill="#FEFEFE" opacity="1.000000" stroke="none" 
	d="
M630.867798,416.007202 
	C639.605469,434.446136 643.283752,454.448120 648.927063,473.852905 
	C652.634399,486.600647 653.042542,499.721405 654.786804,512.694763 
	C655.604492,518.777039 656.163513,524.893982 656.835449,531.398499 
	C604.913086,531.819641 552.994873,531.837585 500.624115,531.787720 
	C500.011902,517.100830 499.583252,502.478271 501.749054,487.934967 
	C502.950989,479.864166 504.781891,471.936432 507.097382,464.138611 
	C512.669250,445.374420 516.864014,426.193665 524.135315,407.556946 
	C538.321655,385.839233 566.182129,373.401611 591.193970,378.848083 
	C599.939270,380.752380 607.070068,385.095673 612.418823,392.464203 
	C616.681458,398.336334 623.456787,402.174957 626.527039,409.443420 
	C627.049988,409.940521 627.306213,410.271912 627.778687,410.833069 
	C627.982666,411.072235 627.988647,411.002411 627.953674,411.004700 
	C628.417053,411.413177 628.466370,412.025696 628.804321,412.827118 
	C628.967163,413.073883 628.982727,413.004395 628.949341,413.016693 
	C629.820740,413.645325 630.136963,414.657135 630.789551,415.814911 
	C630.962891,416.070435 630.912170,415.988464 630.867798,416.007202 
z"/>
<path fill="#636365" opacity="1.000000" stroke="none" 
	d="
M602.788025,638.242249 
	C612.394165,650.461731 612.321777,665.468140 602.519714,678.538635 
	C600.679932,680.991943 599.849060,683.294678 599.972839,686.264465 
	C600.319519,694.580505 598.162598,702.846191 599.108215,711.149414 
	C599.921082,718.287354 600.122803,725.307922 599.027222,732.457092 
	C597.473206,742.596863 588.858032,752.203064 578.702026,751.151672 
	C574.145325,750.679871 570.979431,748.290833 567.977905,745.434021 
	C560.028625,737.867859 558.288208,727.568481 556.064148,717.530823 
	C553.670227,706.726440 553.869080,695.742798 554.044067,684.771729 
	C554.084717,682.225769 553.873047,679.823181 552.154663,677.723633 
	C541.435425,664.626404 544.001160,645.645752 555.425781,634.854675 
	C569.140076,621.900879 590.925476,623.095947 602.788025,638.242249 
z"/>
<path fill="#646366" opacity="1.000000" stroke="none" 
	d="
M630.989258,415.704834 
	C630.305359,415.268280 629.647827,414.466156 628.953125,413.346497 
	C630.460327,413.031555 631.051941,413.900085 630.989258,415.704834 
z"/>
<path fill="#646366" opacity="1.000000" stroke="none" 
	d="
M628.970215,412.756195 
	C628.543030,412.597382 628.118958,412.120850 627.806763,411.325684 
	C628.270264,411.484161 628.621826,411.961334 628.970215,412.756195 
z"/>
<path fill="#646366" opacity="1.000000" stroke="none" 
	d="
M627.865601,410.775085 
	C627.620483,410.830627 627.258301,410.588989 626.851929,409.972839 
	C627.121399,409.891510 627.434998,410.184723 627.865601,410.775085 
z"/>
</svg>