<svg version="1.1" id="Layer_1" xmlns="http://www.w3.org/2000/svg" xmlns:xlink="http://www.w3.org/1999/xlink" x="0px" y="0px"
	 width="100%" viewBox="0 0 388 490" enable-background="new 0 0 388 490" xml:space="preserve">
<path fill="#FFFFFF" opacity="1.000000" stroke="none" 
	d="
M1.354311,247.213013 
	C1.000000,166.416824 1.029437,85.833618 0.902936,5.250646 
	C0.897300,1.660567 1.623389,0.890689 5.240959,0.899700 
	C62.514595,1.042374 119.788689,1.000000 177.531342,1.000000 
	C178.191284,3.141971 176.358627,3.298128 175.085831,3.686198 
	C166.358994,6.346980 158.252655,10.469223 149.661118,14.323158 
	C148.182281,14.957996 146.883560,15.040615 145.486237,15.761675 
	C145.065781,16.009781 144.899399,16.109169 144.482391,16.349491 
	C143.894882,16.662813 143.558517,16.836248 142.985687,17.163589 
	C142.594147,17.427053 142.439774,17.537874 142.054001,17.820393 
	C141.501007,18.221916 141.166626,18.431496 140.548553,18.765141 
	C139.091858,19.395432 138.001709,20.048492 136.671265,20.984531 
	C121.356102,28.938313 110.428482,40.637550 101.063370,54.707848 
	C90.498520,70.580627 85.562897,87.986839 82.378769,106.280212 
	C81.664940,110.381271 81.223946,114.499466 80.936371,119.036209 
	C80.099937,128.284729 76.001396,136.700638 77.373077,146.275818 
	C76.755760,160.995941 76.240906,175.298126 74.892914,189.538055 
	C74.441605,194.305573 75.333992,199.262085 73.031693,204.227097 
	C71.209770,206.556381 68.948586,206.280304 66.816963,206.324112 
	C57.852440,206.508392 48.845310,205.737976 39.943253,207.333389 
	C28.124828,209.451492 18.004669,214.072723 12.150206,225.519928 
	C8.963638,231.750595 5.680708,237.878159 4.208587,244.793457 
	C3.924171,246.129486 3.416645,247.381180 1.354311,247.213013 
z"/>
<path fill="#FFFFFF" opacity="1.000000" stroke="none" 
	d="
M220.938385,1.378062 
	C275.609131,1.000000 330.218414,1.053262 384.827026,0.885030 
	C388.632538,0.873306 389.085999,1.913506 389.081573,5.318550 
	C388.976593,86.233162 389.000000,167.147934 389.000000,248.531342 
	C387.154327,250.238876 386.174530,248.636932 384.704590,247.486115 
	C382.785065,244.791458 382.450470,241.956284 381.813110,238.836563 
	C382.350281,233.295212 380.195618,229.362213 375.925110,226.066101 
	C375.243530,225.597046 374.903656,225.274246 374.428345,224.611084 
	C373.226013,221.524567 372.888855,218.134964 368.453857,217.959808 
	C367.723907,217.727386 367.340942,217.525131 366.762146,217.043304 
	C365.927521,216.002457 365.285400,215.226822 363.925232,214.885391 
	C363.447327,214.685059 363.261536,214.589371 362.832062,214.294556 
	C361.776093,212.707367 360.538025,212.091400 358.613098,212.039032 
	C357.277283,211.766769 356.412842,211.284088 355.272705,210.469833 
	C349.748047,207.268677 344.568481,205.268143 338.148163,206.073608 
	C332.536469,206.777634 326.604004,207.350449 320.664612,205.005951 
	C319.201538,202.341034 319.553375,199.821991 319.458313,197.358795 
	C318.961334,184.479187 320.439514,171.600937 319.509827,158.283249 
	C319.230438,146.625412 315.833130,135.937485 313.735352,125.035301 
	C312.610168,119.187675 311.516693,113.276421 309.420807,107.235168 
	C305.640167,90.016602 300.503662,73.631668 290.992706,59.144680 
	C281.249573,44.304092 271.755981,29.097593 256.576141,18.800703 
	C254.238037,17.214718 252.026123,15.448616 249.180725,13.972594 
	C246.900726,12.302213 244.584015,11.622133 241.929993,10.785812 
	C236.709976,8.141887 231.635529,6.186371 226.307785,4.849196 
	C224.257706,4.334661 222.058167,3.884866 220.938385,1.378062 
z"/>
<path fill="#9B9B9B" opacity="1.000000" stroke="none" 
	d="
M220.531342,1.000000 
	C227.366806,4.932808 235.233841,5.072517 241.798248,9.357477 
	C243.416367,11.425173 245.623001,11.621955 247.840698,12.580543 
	C268.242157,32.804214 283.406799,56.334736 296.437531,81.322624 
	C300.731995,89.557709 306.427704,97.004921 310.216675,105.834839 
	C314.950867,122.549034 318.706696,139.253098 320.973633,156.663635 
	C317.411072,159.303818 315.095673,157.411209 313.377472,154.735977 
	C308.584290,147.272919 302.198944,141.283722 295.937134,135.138092 
	C288.023438,127.371216 279.528809,120.191978 271.983490,112.072495 
	C266.341339,106.001015 260.853302,99.797821 254.539688,93.891830 
	C252.685272,90.537788 250.331604,88.080994 247.372925,85.685349 
	C242.882980,78.195793 236.320953,72.906639 231.044205,66.529297 
	C223.802353,57.777000 214.107315,54.574093 202.852386,54.158600 
	C179.006653,53.278297 161.113098,63.924995 146.291672,81.957909 
	C144.563446,82.710648 143.474533,83.698433 142.390656,84.752701 
	C134.189224,92.730034 126.057381,100.781075 117.813614,108.713486 
	C110.087852,116.147461 102.756859,124.129387 96.057755,132.587631 
	C92.208931,137.447113 87.005196,140.832825 82.644592,145.136475 
	C81.229210,146.533371 79.287773,147.307098 76.846451,146.402954 
	C74.538376,142.193832 75.812202,138.149063 76.554970,134.179184 
	C77.456680,129.359833 79.077072,124.670563 79.234779,119.346207 
	C81.395584,112.961311 83.489540,106.982628 86.093269,101.152153 
	C91.048447,90.056152 95.038414,78.544533 100.311546,67.576218 
	C109.076622,49.344501 120.353264,33.046307 136.744217,20.209076 
	C137.750336,18.940054 138.647003,18.161358 140.256729,17.981287 
	C140.959610,17.849630 141.315369,17.668390 141.804077,17.148462 
	C141.987045,16.905136 141.980377,16.979479 141.944672,16.968639 
	C142.412323,16.605040 143.021194,16.532515 143.778442,16.103830 
	C143.976364,15.879289 143.974976,15.959671 143.938354,15.943075 
	C145.120285,15.206727 146.546783,14.959366 148.009491,13.979792 
	C157.638702,8.773668 167.406815,4.746854 177.757141,1.266977 
	C192.020889,1.000000 206.041794,1.000000 220.531342,1.000000 
z"/>
<path fill="#6CB795" opacity="1.000000" stroke="none" 
	d="
M366.750610,215.901428 
	C367.028625,216.482361 367.221893,216.718506 367.737061,216.945084 
	C370.833038,218.523621 373.201843,220.543671 374.772095,223.841431 
	C374.953644,224.461151 375.091431,224.721008 375.562195,225.005585 
	C379.580658,228.469742 381.665710,232.784378 382.741028,238.055099 
	C383.493561,241.037354 384.152252,243.665649 384.944824,246.644989 
	C386.958923,249.890457 387.520294,253.071564 387.518616,256.498840 
	C387.488831,317.434479 387.487671,378.370087 387.480347,439.305725 
	C387.479919,442.973175 387.612854,446.615021 388.724854,450.600708 
	C389.000000,452.388885 389.000000,453.777802 389.000000,455.583344 
	C387.306061,458.100403 387.941437,460.751953 387.365204,463.119965 
	C383.578644,478.679749 372.392914,488.427002 355.850769,489.989746 
	C258.005402,490.000519 160.601593,489.975281 63.197826,490.027893 
	C53.737644,490.033020 44.281086,490.678314 34.406792,490.732056 
	C34.000000,491.000000 33.500000,491.000000 33.250000,491.000000 
	C31.388079,489.749237 29.417034,489.417145 27.213409,488.763489 
	C24.453606,487.545288 22.085594,486.278992 19.373348,484.959290 
	C18.155048,484.219818 17.312073,483.517853 16.100758,482.778687 
	C14.428351,481.579926 13.301757,480.264771 11.819115,478.855835 
	C11.291387,478.308777 11.009978,477.976654 10.548219,477.366699 
	C9.571567,475.752686 8.532978,474.594788 7.394248,473.069702 
	C7.098639,472.549194 6.991781,472.330078 6.752963,471.762543 
	C5.905589,468.531342 3.104435,465.957977 5.737953,462.568542 
	C8.641767,462.993439 9.579366,465.095947 10.460869,467.010468 
	C16.892921,480.979950 28.983347,485.670654 42.975685,485.369415 
	C137.077133,483.343445 231.186020,485.136780 325.287537,484.428162 
	C332.641846,484.372803 339.877899,485.624329 347.224518,485.524841 
	C358.608490,485.370667 368.285004,480.655823 375.560486,472.677826 
	C382.182098,465.416840 384.206482,455.563019 381.608978,445.914459 
	C379.249725,437.150879 379.240967,428.453064 379.824890,419.663116 
	C380.122894,415.177429 380.498230,410.707581 380.496552,406.208191 
	C380.486328,378.554993 380.339508,350.900543 380.572754,323.249298 
	C380.655792,313.402802 379.662079,303.633636 379.462921,293.816772 
	C379.330170,287.271851 380.118622,280.869293 381.522247,274.494263 
	C382.936981,268.068665 383.099640,261.623688 381.190979,255.228210 
	C380.522461,252.988007 380.229553,250.664871 379.878448,248.360718 
	C378.070587,236.497177 371.923096,226.910324 362.971130,219.506973 
	C355.225433,213.101212 345.785309,210.193481 335.489624,211.146393 
	C333.993774,211.284836 332.475494,211.551834 331.008026,211.249893 
	C326.546722,210.331940 323.050934,211.169388 319.114777,214.169586 
	C315.264618,217.104202 309.898987,218.673553 304.651245,215.271454 
	C305.125458,212.558960 307.238739,212.333679 308.869568,212.259766 
	C313.517700,212.049103 316.946167,209.853546 320.251892,206.324982 
	C328.119324,205.657166 335.598907,206.027664 343.070740,205.823090 
	C347.287506,205.707657 351.412079,207.699646 355.651764,209.861816 
	C356.635834,210.510834 357.290100,210.847336 358.222076,211.188019 
	C359.996521,211.612808 361.564148,211.896973 362.787933,213.535278 
	C363.024445,213.772705 363.354919,214.021866 363.557556,214.063965 
	C364.737488,214.539978 365.749237,214.910858 366.750610,215.901428 
z"/>
<path fill="#E2FAF1" opacity="1.000000" stroke="none" 
	d="
M5.483050,462.559479 
	C5.367453,466.003174 6.951537,468.537262 7.974356,471.627899 
	C5.468072,473.267639 4.902874,471.037933 3.990875,469.627930 
	C2.419874,467.199097 2.316247,464.275543 1.248232,461.295227 
	C1.000000,389.979095 1.000000,318.958221 1.000000,247.468658 
	C1.853309,246.877960 2.761067,246.650879 2.849639,245.665115 
	C3.647440,236.785660 8.435026,229.368423 12.448806,221.905838 
	C15.841448,215.598099 22.253920,212.018677 29.012291,208.847534 
	C35.613770,205.749985 42.334751,205.682175 49.068462,205.140976 
	C56.332779,204.557144 63.679668,205.000687 71.453979,204.989792 
	C72.324516,205.500534 72.461418,206.081024 72.039124,207.090485 
	C66.275352,209.347885 60.621391,208.081451 55.055492,208.377823 
	C53.076401,208.483200 51.087357,208.379669 48.672005,208.421997 
	C46.863121,208.521118 45.518642,208.829788 43.773338,209.108582 
	C41.647789,209.375580 39.877548,209.160950 37.815525,209.699310 
	C36.350666,210.229538 35.225578,210.631042 33.742691,211.063690 
	C25.610548,213.693954 19.301212,218.138229 15.059625,225.695526 
	C14.725956,226.679733 14.383560,227.274948 13.737049,228.085052 
	C12.276582,229.384369 11.339770,230.632217 10.726563,232.536255 
	C10.276713,233.885468 9.955275,234.888443 9.444801,236.293442 
	C6.995905,243.314636 5.335405,249.970444 5.348051,257.103210 
	C5.463678,322.325012 5.398371,387.547028 5.411049,452.769012 
	C5.411469,454.931183 5.351015,457.095520 5.643554,459.727783 
	C5.858789,460.845978 5.846682,461.487976 5.483050,462.559479 
z"/>
<path fill="#F3FEFA" opacity="1.000000" stroke="none" 
	d="
M34.468658,491.000000 
	C32.891060,489.029266 34.507225,488.964478 35.542747,489.170319 
	C46.530903,491.354645 57.440025,488.684174 68.395828,488.700348 
	C156.002151,488.829620 243.608749,488.768433 331.215271,488.779663 
	C339.515106,488.780731 347.810120,490.094849 356.553406,488.897400 
	C357.375214,489.325806 357.525146,489.802063 357.220642,490.675934 
	C249.645767,491.000000 142.291550,491.000000 34.468658,491.000000 
z"/>
<path fill="#F1FDF8" opacity="1.000000" stroke="none" 
	d="
M389.000000,450.531342 
	C387.195343,451.998779 387.012634,450.609009 386.913391,449.460388 
	C386.599152,445.823334 385.797852,442.267578 385.803558,438.561310 
	C385.882721,387.234894 385.555756,335.905273 386.075684,284.584015 
	C386.200348,272.277893 386.934937,260.049591 385.033386,247.419144 
	C386.616943,246.869583 387.041962,248.643539 388.674500,248.955887 
	C389.000000,316.020905 389.000000,383.041779 389.000000,450.531342 
z"/>
<path fill="#FAFCFC" opacity="1.000000" stroke="none" 
	d="
M357.468689,491.000000 
	C356.999115,490.538666 356.998230,490.077362 356.994568,489.269531 
	C360.317902,487.912659 363.721893,487.104095 366.956268,485.855957 
	C378.848907,481.266571 384.595001,471.957214 386.648102,459.846313 
	C386.898987,458.366486 386.065796,456.372620 388.610657,455.775482 
	C389.000000,466.762085 388.902863,477.525757 389.074951,488.285095 
	C389.113312,490.683258 388.546417,491.105591 386.248779,491.066711 
	C376.813965,490.907043 367.374847,491.000000 357.468689,491.000000 
z"/>
<path fill="#FDFEFE" opacity="1.000000" stroke="none" 
	d="
M1.000000,461.468658 
	C3.526969,461.124512 2.778296,463.374695 3.384748,464.723389 
	C4.507039,467.219238 4.673420,470.228058 7.660655,471.942932 
	C8.012783,471.990570 8.199201,472.260223 8.214056,472.423462 
	C8.465286,474.250977 9.395802,475.491180 10.933975,476.712524 
	C11.524934,476.979248 11.755836,477.159698 12.001593,477.635956 
	C12.760914,479.571106 13.684369,481.067566 15.929428,481.742920 
	C17.078312,482.356659 17.910629,482.854553 18.910393,483.595764 
	C21.122461,486.093781 23.795725,487.089874 27.047697,487.706818 
	C29.627703,488.028961 31.995689,487.941223 33.174706,490.634338 
	C23.236589,491.000000 13.471191,490.893555 3.711185,491.075806 
	C1.306069,491.120697 0.890977,490.537811 0.933762,488.247620 
	C1.097553,479.480194 1.000000,470.707825 1.000000,461.468658 
z"/>
<path fill="#646366" opacity="1.000000" stroke="none" 
	d="
M72.396072,207.488770 
	C72.285049,206.590240 72.236305,206.118591 72.052490,205.315216 
	C74.461945,193.580276 73.695877,181.896484 74.679115,170.360535 
	C75.339195,162.616028 75.593353,154.812042 76.465691,146.625275 
	C78.995949,146.171219 81.010727,145.236328 82.871094,143.649872 
	C94.159164,134.023804 103.008118,122.087570 113.359001,111.585953 
	C123.384468,101.414490 133.758545,91.586540 144.002838,81.631729 
	C144.138000,81.500397 144.579468,81.684303 145.062592,81.964668 
	C146.349060,84.823418 144.926117,87.101906 144.152283,89.397186 
	C136.869659,110.998619 131.042236,133.015457 125.786079,155.169815 
	C123.137047,166.335312 122.101486,177.787277 122.391083,189.325226 
	C122.532867,194.974365 122.549316,200.634155 122.269623,206.720886 
	C119.897644,212.773972 117.652321,214.392838 111.834816,214.324600 
	C105.579575,214.251251 99.523666,212.161713 92.795822,212.386780 
	C91.211609,212.410446 90.061775,212.443878 88.482666,212.403290 
	C85.429008,212.278351 82.799263,212.484787 80.177177,212.297668 
	C76.918251,212.065125 74.050919,211.102432 72.396072,207.488770 
z"/>
<path fill="#686768" opacity="1.000000" stroke="none" 
	d="
M136.629974,19.932430 
	C136.724304,23.206486 133.931458,24.696997 131.855652,26.332241 
	C119.115845,36.368176 110.811386,49.766506 103.611328,63.833614 
	C94.830055,80.989998 88.232895,99.129234 81.072144,117.004295 
	C80.833923,117.598969 80.447052,118.134087 79.769089,118.848885 
	C80.921928,104.380493 84.308868,90.131126 88.255295,76.023560 
	C89.223824,72.561302 91.253975,69.358658 93.027191,66.164986 
	C103.581421,47.156071 115.830612,29.707817 136.629974,19.932430 
z"/>
<path fill="#858585" opacity="1.000000" stroke="none" 
	d="
M147.887695,13.780733 
	C147.528275,15.237148 146.402786,16.109499 144.277390,15.953800 
	C144.703064,14.531749 146.129883,14.215384 147.887695,13.780733 
z"/>
<path fill="#858585" opacity="1.000000" stroke="none" 
	d="
M143.669586,15.896887 
	C143.500534,16.231695 143.024704,16.584105 142.228928,16.947157 
	C142.393585,16.610027 142.878189,16.262259 143.669586,15.896887 
z"/>
<path fill="#858585" opacity="1.000000" stroke="none" 
	d="
M141.692871,16.993126 
	C141.715225,17.202869 141.443390,17.500601 140.866028,17.873243 
	C140.839890,17.659142 141.119293,17.370129 141.692871,16.993126 
z"/>
<path fill="#646366" opacity="1.000000" stroke="none" 
	d="
M320.325806,206.527115 
	C317.923492,214.305679 311.294067,212.958008 305.425964,213.985138 
	C304.316254,214.576279 303.564240,215.022034 302.239990,215.255676 
	C296.030823,214.691757 290.324890,216.972122 284.484680,215.495102 
	C280.386597,214.458679 277.500610,212.538345 276.684601,207.740051 
	C274.803192,192.783600 273.291962,178.217224 271.602356,163.671463 
	C271.429504,162.183212 271.453400,160.656204 271.021912,159.219101 
	C265.087830,139.454910 261.982300,118.874565 253.867203,99.739899 
	C253.075027,97.872025 252.533432,95.964806 253.292450,93.530472 
	C253.734970,92.995346 253.980270,92.844284 254.639435,92.817535 
	C263.201172,99.825783 269.473907,108.563110 277.358398,115.678551 
	C287.326416,124.674347 296.304993,134.685089 306.462921,143.497437 
	C309.735382,146.336411 312.141968,150.336899 314.390411,154.134216 
	C315.838623,156.580017 317.567657,157.253036 320.446381,157.092010 
	C321.996033,172.727585 321.320496,188.361755 320.673828,204.459213 
	C320.810852,205.387482 320.749481,205.832901 320.325806,206.527115 
z"/>
<path fill="#686868" opacity="1.000000" stroke="none" 
	d="
M310.453186,105.572243 
	C305.874908,102.698433 304.357788,97.177605 301.591309,92.658173 
	C293.728271,79.812744 287.022614,66.254723 279.068451,53.470535 
	C272.707214,43.246567 265.739807,33.335232 257.271240,24.608232 
	C253.940613,21.175997 250.995209,17.369974 247.766144,13.400675 
	C247.905350,12.893039 248.152771,12.718890 248.827805,12.696778 
	C258.767181,18.718668 267.759277,25.198931 274.700012,34.150772 
	C288.854431,52.406475 301.431702,71.515633 307.446899,94.206688 
	C308.415222,97.859566 309.388519,101.511124 310.453186,105.572243 
z"/>
<path fill="#F1FDF8" opacity="1.000000" stroke="none" 
	d="
M320.561310,206.848969 
	C320.182068,206.288467 320.261566,205.784302 320.525574,205.101349 
	C327.982849,204.639816 335.231720,205.164246 342.559540,204.358917 
	C347.156830,203.853714 351.992340,206.270828 355.940125,209.802231 
	C344.654633,205.588745 332.757690,207.098984 320.561310,206.848969 
z"/>
<path fill="#F1FDF8" opacity="1.000000" stroke="none" 
	d="
M382.885406,237.958618 
	C380.546692,234.197601 378.258545,229.986160 375.870178,225.435684 
	C380.599640,227.006226 383.011871,231.184189 382.885406,237.958618 
z"/>
<path fill="#F1FDF8" opacity="1.000000" stroke="none" 
	d="
M374.960205,223.739761 
	C372.704926,221.963913 370.468781,219.792877 368.096191,217.319290 
	C372.944061,216.192429 374.379303,219.305237 374.960205,223.739761 
z"/>
<path fill="#808080" opacity="1.000000" stroke="none" 
	d="
M249.031891,12.571928 
	C248.990967,12.888399 248.726501,12.927984 248.059982,13.017378 
	C245.433929,12.958602 243.527878,12.225101 242.135422,9.945042 
	C244.299164,10.489310 246.553757,11.392177 249.031891,12.571928 
z"/>
<path fill="#F1FDF8" opacity="1.000000" stroke="none" 
	d="
M363.003174,213.388214 
	C361.668060,213.081573 360.311646,212.390442 358.727539,211.445770 
	C360.214996,211.248917 362.449127,210.021606 363.003174,213.388214 
z"/>
<path fill="#F1FDF8" opacity="1.000000" stroke="none" 
	d="
M366.907166,215.788849 
	C365.995209,215.661621 365.055756,215.158279 363.938232,214.380493 
	C364.997040,214.071243 366.378845,213.690338 366.907166,215.788849 
z"/>
<path fill="#FEFEFE" opacity="1.000000" stroke="none" 
	d="
M252.984253,92.935905 
	C261.864716,113.087402 265.710754,134.423569 271.531219,155.151062 
	C274.449982,165.545242 274.383087,176.503510 275.765259,187.193909 
	C276.573059,193.442078 277.155640,199.719360 277.833496,206.386566 
	C276.192413,208.659424 273.975189,208.487747 271.816833,208.486526 
	C224.097488,208.459656 176.378052,208.576523 128.658844,208.411331 
	C126.368858,208.403412 123.972610,208.805740 121.516144,207.074203 
	C121.028336,192.087860 120.581711,177.466827 122.765511,162.920609 
	C123.976959,154.851196 125.766151,146.917068 128.086792,139.123657 
	C133.671616,120.368118 137.851883,101.187126 145.139908,82.560829 
	C160.410110,59.101761 192.622482,45.560265 220.412476,56.401318 
	C222.525894,57.225765 224.609955,58.598568 226.197662,60.216846 
	C233.715378,67.879417 242.202576,74.732674 247.412720,84.826172 
	C249.876190,87.255226 251.776901,89.678535 252.984253,92.935905 
z"/>
<path fill="#7C7C7C" opacity="1.000000" stroke="none" 
	d="
M253.508911,93.183456 
	C251.281387,90.763214 249.567490,88.255035 247.747604,85.407555 
	C251.149368,86.377098 252.900513,89.466888 254.996002,92.603760 
	C254.709702,92.993073 254.366119,93.044304 253.508911,93.183456 
z"/>
<path fill="#61B98F" opacity="1.000000" stroke="none" 
	d="
M301.619812,214.315430 
	C302.735657,214.032425 303.493561,213.997711 304.630554,213.989136 
	C305.135468,215.134277 305.760315,216.224533 306.849243,215.891556 
	C311.636261,214.427750 317.826721,216.590408 320.858673,210.472580 
	C322.026093,208.116943 324.580048,208.625381 326.223297,209.120605 
	C332.578308,211.035812 339.018250,208.355606 345.375580,209.939453 
	C352.254333,211.653198 358.642548,214.081116 364.399200,218.417313 
	C367.221008,220.542816 368.900848,223.535843 371.510742,225.688324 
	C373.053131,226.960388 373.830261,228.398895 374.022186,230.330322 
	C374.117371,231.288132 374.205139,232.648331 374.823120,233.091049 
	C381.782990,238.077271 380.073059,246.103500 382.233276,252.827225 
	C385.640869,263.433533 382.886475,273.379150 381.440216,283.671204 
	C380.545807,290.036072 380.918182,296.641663 381.347290,303.097626 
	C381.508911,305.528961 381.993225,308.007324 381.994141,310.490997 
	C382.006470,344.155975 382.072723,377.821259 381.945831,411.485748 
	C381.919006,418.606873 380.633820,425.689240 380.957947,432.858521 
	C381.153534,437.185242 381.511597,441.354401 383.476166,445.356873 
	C384.747742,447.947510 384.025360,450.952118 383.958038,453.753967 
	C383.781494,461.103790 382.009003,468.633026 377.160492,473.697449 
	C371.589722,479.516296 364.511169,484.337860 356.074097,485.959412 
	C349.180481,487.284302 342.270508,487.690674 335.327332,486.114746 
	C333.896698,485.790009 332.339172,486.004150 330.840118,486.004120 
	C240.677948,486.000854 150.515717,485.956665 60.353722,486.081604 
	C52.741573,486.092163 45.139023,487.351868 37.481556,487.015442 
	C34.292488,486.875336 31.183979,486.760468 28.876635,484.035583 
	C27.005217,481.825653 24.192865,483.277039 21.829445,482.395386 
	C15.951012,480.202423 13.939401,474.825836 10.694448,470.408905 
	C8.966781,468.057281 8.645114,464.797821 5.594841,463.046967 
	C5.137792,462.567169 5.014609,462.142914 4.888977,461.386108 
	C5.037695,429.314606 4.999294,397.575500 5.003053,365.836426 
	C5.005772,342.884827 5.174430,319.931519 4.941596,296.982300 
	C4.793929,282.427521 5.196992,267.878998 5.034152,253.323990 
	C4.965991,247.231567 8.278296,241.585526 8.713778,234.980560 
	C9.004184,233.774750 9.178469,233.026398 9.564526,232.075668 
	C11.627210,231.349701 12.973186,230.445129 12.385754,227.913086 
	C12.535812,227.161728 12.846004,226.699905 13.354748,226.040985 
	C14.889847,225.446793 15.851717,224.398514 16.586414,223.418335 
	C19.921745,218.968536 23.892076,215.425995 29.114752,213.318893 
	C30.465019,212.774124 31.626318,211.740784 32.757835,210.248398 
	C34.079426,209.621704 35.161907,209.255875 36.588013,208.870544 
	C38.838646,208.913864 40.785942,209.468002 42.796043,208.130402 
	C44.106701,207.599640 45.220432,207.324814 46.677986,207.086395 
	C52.672115,208.699829 58.464893,208.032364 64.198990,208.122833 
	C66.534233,208.159698 68.973145,207.706512 70.901573,209.248276 
	C75.984825,213.312363 81.596275,212.872192 87.676239,211.298752 
	C89.056656,211.046982 90.137566,211.027985 91.622269,211.049408 
	C94.201851,213.007507 96.840851,212.001297 99.248711,212.096786 
	C103.897934,212.281174 108.219315,214.335770 112.965607,214.087509 
	C115.806847,213.938904 118.195946,213.495178 119.954727,211.096252 
	C121.797737,208.582443 124.324554,207.586975 127.389473,208.047882 
	C132.861374,208.870743 138.366211,208.496155 143.855118,208.500870 
	C185.019913,208.536346 226.184967,208.584976 267.349365,208.457001 
	C274.579895,208.434525 279.242828,212.253723 283.277710,217.763885 
	C280.274597,220.208694 277.007690,219.524658 273.905670,219.526306 
	C199.619629,219.565750 125.331123,219.857513 51.049862,219.259567 
	C38.713268,219.160248 30.788246,224.464157 23.950600,232.946564 
	C15.730542,243.143860 11.694703,254.942474 12.579459,268.245789 
	C13.117692,276.338776 14.867614,278.260010 22.852026,278.408020 
	C29.512848,278.531464 36.176517,278.441772 42.838913,278.441895 
	C150.104019,278.443787 257.369110,278.443787 364.634216,278.442383 
	C376.262573,278.442230 377.183014,277.381195 375.711700,265.634521 
	C374.988251,259.858307 374.494781,254.062576 372.669800,248.453644 
	C370.050262,240.402557 366.532867,232.993256 359.338684,227.347473 
	C358.260590,225.949539 357.494446,224.838913 355.580444,224.610199 
	C348.697601,220.772232 341.816284,219.169998 334.258514,219.406998 
	C322.997467,219.760117 311.717163,219.508820 300.445038,219.490143 
	C298.297333,219.486588 296.126648,219.643677 293.649323,218.706329 
	C291.756989,215.984329 293.291779,215.324341 295.382996,215.064941 
	C297.334930,214.822830 299.351593,215.320724 301.619812,214.315430 
z"/>
<path fill="#E2FAF1" opacity="1.000000" stroke="none" 
	d="
M27.144806,487.522156 
	C24.030165,488.295715 21.167095,487.493652 19.098637,484.208069 
	C21.680267,484.983490 24.282703,486.127899 27.144806,487.522156 
z"/>
<path fill="#E2FAF1" opacity="1.000000" stroke="none" 
	d="
M16.069670,481.586578 
	C13.764404,482.192749 12.041250,481.536896 12.062176,478.239319 
	C13.354787,479.000427 14.624063,480.157410 16.069670,481.586578 
z"/>
<path fill="#E2FAF1" opacity="1.000000" stroke="none" 
	d="
M11.136436,476.569397 
	C8.799454,476.963013 7.940465,475.636627 8.165063,472.992065 
	C9.168581,473.808350 10.108244,475.029999 11.136436,476.569397 
z"/>
<path fill="#6CB795" opacity="1.000000" stroke="none" 
	d="
M8.556139,234.800018 
	C8.977083,239.948944 9.779383,245.309814 6.133569,250.325882 
	C4.905457,252.015579 5.412256,255.265076 5.731365,257.895569 
	C6.508252,264.299652 7.112820,270.963593 6.680683,277.185547 
	C4.959136,301.972687 6.476948,326.735779 6.085060,351.499817 
	C5.690153,376.454620 6.563719,401.439148 5.744517,426.373291 
	C5.370222,437.765747 7.339085,449.139221 5.204621,460.768433 
	C3.350168,457.395660 3.889947,453.532593 3.888033,449.754578 
	C3.856641,387.803345 3.960555,325.851929 3.796076,263.901154 
	C3.769707,253.969299 4.304274,244.301590 8.556139,234.800018 
z"/>
<path fill="#6CB795" opacity="1.000000" stroke="none" 
	d="
M87.523026,211.030487 
	C84.536423,214.679504 76.708427,215.334518 72.641533,211.991150 
	C69.749763,209.613861 66.907318,209.546906 63.252060,209.423141 
	C58.050476,209.247025 52.472591,210.257172 47.227501,207.449860 
	C55.128944,207.095139 63.236084,207.067490 71.838509,207.050873 
	C76.220924,212.213547 81.826057,210.928207 87.523026,211.030487 
z"/>
<path fill="#6CB795" opacity="1.000000" stroke="none" 
	d="
M32.634365,210.000580 
	C33.286346,213.276703 30.586533,214.273529 28.451208,215.137848 
	C24.144823,216.880966 20.792845,219.444412 18.569128,223.558411 
	C17.727787,225.114960 16.036079,225.602249 13.959332,225.877930 
	C17.209139,217.512100 24.371309,213.326355 32.634365,210.000580 
z"/>
<path fill="#6CB795" opacity="1.000000" stroke="none" 
	d="
M11.967453,227.777634 
	C14.325188,228.664566 14.458528,230.453522 13.525291,232.178284 
	C12.798770,233.521011 11.518927,232.676208 10.132708,232.032379 
	C10.420628,230.559418 11.064955,229.245575 11.967453,227.777634 
z"/>
<path fill="#6CB795" opacity="1.000000" stroke="none" 
	d="
M42.593216,207.845154 
	C41.972565,211.349030 39.561741,209.935791 37.174675,209.155731 
	C38.492931,207.526749 40.434757,208.136688 42.593216,207.845154 
z"/>
<path fill="#6CB795" opacity="1.000000" stroke="none" 
	d="
M301.524902,214.040283 
	C301.612579,216.553970 299.643402,215.788086 298.119537,216.014984 
	C296.441437,216.264816 294.418060,215.156586 293.088470,217.591904 
	C290.051025,220.219666 286.905090,219.739655 283.355957,218.303650 
	C278.830750,214.200333 275.040985,209.956329 268.643768,209.965363 
	C224.380417,210.027786 180.116913,210.001358 135.853455,209.991882 
	C133.207703,209.991318 130.592560,210.077484 127.964668,209.239349 
	C125.460281,208.440628 123.164352,209.072006 121.233658,211.221909 
	C117.976242,214.849136 110.684410,216.688705 106.401733,214.414398 
	C103.139107,212.681763 99.997780,212.785492 96.781906,213.324142 
	C94.737801,213.666519 93.224350,213.706604 92.079056,211.434235 
	C98.705322,210.484619 105.110512,212.587921 111.681206,213.099091 
	C116.261909,213.455475 119.353996,211.743011 121.090393,207.080246 
	C124.500252,206.775986 127.824005,206.904327 131.147751,206.904404 
	C179.738373,206.905518 228.328995,206.889481 277.373535,206.833557 
	C277.923279,213.819260 283.732330,214.871353 290.751129,214.686005 
	C294.138641,214.596527 297.625458,214.209778 301.524902,214.040283 
z"/>
<path fill="#7FD5AE" opacity="1.000000" stroke="none" 
	d="
M282.528809,217.981720 
	C286.029541,217.980438 289.062012,217.990295 292.548828,217.988037 
	C308.310028,217.989716 323.617828,218.108139 338.923248,217.968277 
	C345.500977,217.908173 351.123566,220.125320 356.651733,223.949921 
	C357.593719,224.031799 358.129395,224.220078 358.783844,224.825348 
	C371.883026,234.736237 375.584839,248.721725 376.995270,263.759766 
	C377.288818,266.889526 378.319183,269.912933 378.027130,273.136963 
	C377.591949,277.940735 375.595245,280.008209 370.768219,280.008331 
	C254.288055,280.011597 137.807892,280.004486 21.327742,279.977142 
	C13.852627,279.975403 11.573792,277.750031 11.013679,270.292877 
	C9.323265,247.787277 19.412079,231.294724 37.293152,218.766113 
	C39.124252,217.483109 41.165298,218.034393 43.101452,218.033447 
	C122.754471,217.994400 202.407516,217.996216 282.528809,217.981720 
z"/>
<path fill="#626465" opacity="1.000000" stroke="none" 
	d="
M174.528091,355.069946 
	C171.186584,349.646973 167.844971,344.822296 166.829483,338.609985 
	C164.089493,321.847595 173.797165,308.200043 187.025436,303.131134 
	C201.066589,297.750732 214.735107,301.890503 224.731293,314.284729 
	C232.934921,324.456360 233.243607,339.776611 224.858643,351.454681 
	C221.953217,355.501221 221.237381,359.511322 220.842148,364.264740 
	C219.874863,375.897919 220.454437,387.459290 220.848587,399.067383 
	C221.051575,405.045654 219.759003,410.918457 216.890350,416.364471 
	C210.475922,428.541962 196.008163,429.610626 187.398163,418.791046 
	C181.119827,410.901398 179.181732,401.551178 176.994812,392.171234 
	C174.168411,380.048370 175.519409,367.681976 174.528091,355.069946 
z"/>
<path fill="#6CB795" opacity="1.000000" stroke="none" 
	d="
M358.956177,224.743546 
	C358.427948,224.860443 357.877777,224.679733 357.161377,224.254883 
	C357.926727,222.885147 358.541260,223.171829 358.956177,224.743546 
z"/>
</svg>