<svg width="38" height="38" viewBox="0 0 38 38" fill="none" xmlns="http://www.w3.org/2000/svg">
<g clip-path="url(#clip0_84_6)">
<path d="M4.71082 24.4221L23.6479 5.48981L32.5054 14.3497L13.5678 33.2821L4.71082 24.4221Z" fill="#FFCE31"/>
<path d="M36.3969 2.73125L35.2688 1.60312C33.1312 -0.534375 29.6875 -0.534375 27.4906 1.60312L23.6312 5.4625L32.5375 14.3688L36.3969 10.5094C38.5344 8.37188 38.5344 4.86875 36.3969 2.73125Z" fill="#ED4C5C"/>
<path d="M21.2456 7.90282L23.6799 5.46725L32.5387 14.326L30.1043 16.761L21.2456 7.90282Z" fill="#93A2AA"/>
<path d="M22.1694 8.82608L24.6038 6.39111L31.5738 13.3606L29.1383 15.7949L22.1694 8.82608Z" fill="#C7D3D8"/>
<path d="M4.69063 24.4031L0.831253 34.4969L3.50313 37.1688L13.5969 33.3094L4.69063 24.4031Z" fill="#FED0AC"/>
<path d="M0.178253 36.2781C-0.356122 37.7031 0.356377 38.3562 1.78138 37.8219L6.65013 35.9812L2.07825 31.4094L0.178253 36.2781Z" fill="#333333"/>
<path d="M4.68468 24.4477L21.2266 7.90579L24.1656 10.8449L7.62375 27.3867L4.68468 24.4477Z" fill="#FFDF85"/>
<path d="M10.6305 30.3656L27.1724 13.8237L30.1114 16.7628L13.5696 33.3046L10.6305 30.3656Z" fill="#FF8736"/>
</g>
<defs>
<clipPath id="clip0_84_6">
<rect width="38" height="38" fill="white"/>
</clipPath>
</defs>
</svg>
